# xmcd
#
# Track frame offsets:
#  150
#  15051
#  29819
#  45165
#  58679
#  75502
#  91161
#  107161
#
# Disc length: 1646 seconds
#
# Revision: 0
# Processed by: cddbd v1.5.1PL0 Copyright (c) Steve Scherf et al.
# Submitted via: Collectorz.com Music Collector 6.9
#
DISCID=4f066c08
DTITLE=Cramer, Floyd - Hits From Country Hall Of Fame
DYEAR=1965
DGENRE=Classic Country
TTITLE0=Jimmie Rodgers Medley
TTITLE1=Hank Williams Medley
TTITLE2=Roy Acuff Medely
TTITLE3=Fred Rose Medley
TTITLE4=Jimmie Rodgers Medley
TTITLE5=Hank Williams Medley
TTITLE6=Roy Acuff Medley
TTITLE7=Fred Rose Medley
EXTD=
EXTT0=
EXTT1=
EXTT2=
EXTT3=
EXTT4=
EXTT5=
EXTT6=
EXTT7=
PLAYORDER=
